<svg xmlns="http://www.w3.org/2000/svg" viewBox="0 0 260 48">
  <defs>
    <style>
      .a{fill:#ed1c24;}
    </style>
  </defs>
  <path d="M47.24 47.51v-8.09l-8.16 8.09h8.16m-14.38 0l14.38-14.25v-8.09L24.7 47.51h8.16m-14.38 0l28.76-28.5v-8.09L10.32 47.51h8.16m-14.38 0L47.24 4.76V.69h-4.06L0 43.49v4.02h4.1M28.8.69L0 29.24v8.08L36.97.69H28.8m-14.38 0L0 14.99v8.08L22.59.69h-8.17M.04.69L0 .74v8.08L8.21.69H.04M214.2 8.78a4.36 4.36 0 0 0 3.13-1.28 4.24 4.24 0 0 0 1.32-3.13 4.18 4.18 0 0 0-1.32-3.11 4.39 4.39 0 0 0-3.1-1.26A4.29 4.29 0 0 0 211 1.31a4.29 4.29 0 0 0-1.25 3.06 4.27 4.27 0 0 0 1.29 3.1 4.31 4.31 0 0 0 3.16 1.31zm40.41 31.89V25.85a23.6 23.6 0 0 0-.61-6.35 7.36 7.36 0 0 0-2.9-3.91 9.25 9.25 0 0 0-5.56-1.59c-3.22 0-6.68 1.27-10.39 3.74V14.5H222v6.81h5.62v19.35h-9.35V14.5h-12.55v6.81h5v19.35h-9.21V.65h-13.3v6.82h5.68v33.2h-8.62V25.59a21.14 21.14 0 0 0-.73-6.34 7.29 7.29 0 0 0-2.94-3.76 9.53 9.53 0 0 0-5.46-1.49c-3.6 0-7.39 1.56-11.38 4.58A8.15 8.15 0 0 0 157 14a17.91 17.91 0 0 0-10.47 3.83V14.5H133.6v6.81h5.32v19.35h-9.28V14.5h-13.22v6.81h5.65v16.22c-3.15 2.57-6 3.79-8.67 3.79a3 3 0 0 1-2-.64 2.51 2.51 0 0 1-.93-1.61 35.14 35.14 0 0 1-.19-4.61v-20H98.19v6.81h4.53v13.98a26.63 26.63 0 0 0 .72 7.31 7.29 7.29 0 0 0 3 3.94 10.06 10.06 0 0 0 5.66 1.5 17.6 17.6 0 0 0 9.93-3.54v3h30v-6.8h-5.62v-16c3.56-2.57 6.45-3.79 8.52-3.78a2.75 2.75 0 0 1 2.54 1.1 8 8 0 0 1 .8 4.16v21.34h13.13v-6.82h-5.48v-16c3.25-2.55 6.11-3.77 8.51-3.76a3.35 3.35 0 0 1 2 .61 2.45 2.45 0 0 1 1 1.49 20.47 20.47 0 0 1 .23 3.74v20.74h63v-6.82h-5.52v-16c3.34-2.51 6.27-3.71 8.77-3.7a3 3 0 0 1 2.22.91c.5.46.92 1.91.9 4.25v21.36h13v-6.82zM93.83 7.63h5.25v-7H80.21v7h5.39v11.75H66.9V7.63h5.42v-7H53.45v7h5.22V40.5h-5.22v7h18.87v-7H66.9V26.36h18.7V40.5h-5.39v7h18.87v-7h-5.25z" class="a"/>
</svg>
