<svg xmlns="http://www.w3.org/2000/svg" viewBox="0 0 29.735 29.735">
  <path d="M23.895 29.733c-1.237 0-2.73-.31-4.373-.93-3.603-1.358-7.52-4.042-11.035-7.556C4.973 17.733 2.29 13.814.93 10.21-.307 6.935-.31 4.247.92 3.017c.178-.178.36-.368.545-.563C2.588 1.274 3.887-.066 5.538.006c1.16.048 2.283.768 3.435 2.198 3.396 4.225 1.865 5.73.093 7.477l-.314.31c-.29.29-.84 1.64 4.26 6.73 1.666 1.67 3.084 2.89 4.217 3.62.71.47 1.99 1.17 2.51.65l.31-.32c1.744-1.77 3.25-3.295 7.474.1 1.43 1.15 2.15 2.27 2.2 3.434.07 1.68-1.27 2.954-2.455 4.076-.194.184-.384.363-.56.54-.614.612-1.59.92-2.82.92zM5.42 1.003c-1.195 0-2.275 1.135-3.23 2.14-.193.2-.38.398-.563.58-.916.916-.822 3.324.238 6.135 1.31 3.473 3.913 7.267 7.33 10.683s7.208 6.02 10.68 7.33c2.81 1.06 5.22 1.16 6.135.24.183-.18.378-.37.578-.56 1.028-.973 2.193-2.08 2.143-3.31-.03-.84-.64-1.75-1.82-2.692-3.52-2.827-4.5-1.827-6.132-.175l-.32.323c-.776.78-2.043.61-3.765-.51-1.19-.772-2.664-2.035-4.38-3.75-4.23-4.23-5.584-6.82-4.26-8.144l.32-.316c1.658-1.634 2.658-2.62-.172-6.14-.95-1.176-1.855-1.79-2.7-1.826l-.076-.002zM24.07 12.29c-.063 0-.126-.012-.188-.037-.256-.104-.38-.395-.275-.65.636-1.568.272-3.355-.924-4.552-1.23-1.22-3.118-1.57-4.703-.85-.25.114-.548.004-.66-.25-.115-.25-.004-.546.248-.66 1.96-.89 4.3-.46 5.822 1.06 1.48 1.48 1.93 3.69 1.143 5.636-.078.19-.266.31-.463.31z"/>
  <path d="M28.534 14.102c-.063 0-.126-.012-.188-.037-.257-.104-.38-.395-.275-.65 1.37-3.367.59-7.202-1.98-9.77C23.46 1.005 19.4.265 16 1.803c-.252.11-.548.002-.662-.25-.113-.253-.002-.55.25-.663C19.363-.816 23.868.005 26.8 2.936 29.654 5.79 30.518 10.05 29 13.79c-.078.194-.266.312-.463.312z"/>
</svg>
